<mxfile host="app.diagrams.net" modified="2024-01-12T17:39:34.550Z" agent="Mozilla/5.0 (Windows NT 10.0; Win64; x64) AppleWebKit/537.36 (KHTML, like Gecko) Chrome/120.0.0.0 Safari/537.36" version="22.1.18" etag="ropIgqFUJMVICCV3VWIo" type="github">
  <diagram name="Page-1" id="4ZA9wADq1e4naYNJpHV_">
    <mxGraphModel>
      <root>
        <mxCell id="0" />
        <mxCell id="1" parent="0" />
      </root>
    </mxGraphModel>
  </diagram>
</mxfile>
